<svg xmlns="http://www.w3.org/2000/svg" width="1528" height="1306" fill="none"><path fill="#EF9A9A" stroke="#EF9A9A" d="M897.209 469.581c-22.612-23.988-62.231-55.896-62.231-55.896s47.375 24.933 73.583 48.455c29.958 26.888 44.551 46.44 65.393 81.67 23.23 39.267 31.236 64.544 42.416 107.561 11.35 43.686 14.66 69.586 12.63 112.129-2.03 42.519-6.6 65.903-22.81 101.841-17.849 39.567-33 59.597-64.844 85.819-31.714 26.115-53.394 38.108-94.769 45.876-22.548 4.234-35.926 5.554-59.893 2.904-30.93-3.426-79.207-24.658-79.207-24.658s43.378 10.349 70.696 11.673c25.555 1.238 40.18 1.311 64.094-4.111 39.106-8.866 58.874-21.919 88.44-47.915 27.858-24.494 42.284-41.572 57.884-77.39 15.049-34.553 18.099-57.974 20.369-98.436 2.25-40.163 1.07-64.254-8.72-105.67-9.557-40.443-18.214-63.853-39.384-101.037-20.191-35.463-35.853-53.329-63.647-82.815Z"/><path fill="#EF9A9A" stroke="#EF9A9A" d="M830.038 590.989c-12.896-38.494-44.451-95.305-44.451-95.305s41.138 53.362 58.305 92.243c23.545 53.328 30.531 87.532 28.608 140.573-1.753 48.352-6.655 78.771-31.896 111.416-21.376 27.644-39.669 38.506-73.248 45.975-32.266 7.177-54.054 6.802-89.227-7.563-30.661-12.522-73.972-52.155-73.972-52.155s37.269 22.808 61.821 30.572c35.023 11.075 56.778 14.385 88.012 5.404 31.083-8.938 46.166-22.39 65.705-49.309 21.164-29.159 29.115-51.841 32.521-93.161 3.913-47.469-5.506-78.922-22.178-128.69ZM697.041 166.5c-3.874-21.325 0-55.5 0-55.5s3.053 34.883 11 55.5c9.157 23.755 19.66 34.681 35 55 19.066 25.254 32.975 36.781 55 59.5 33.163 34.208 53.592 51.544 88 84.5 43.087 41.269 71.559 60.298 110.5 105.5 28.139 32.664 46.279 50.158 65.999 88.5 20.93 40.701 30.69 66.933 34.96 112.5 3.32 35.459 4.57 56.636-6.46 90.5-7.44 22.837-28.5 54.5-28.5 54.5s13.33-32.508 17-54.5c5.85-35.107 3.02-56.325-5-91-9.18-39.675-22.31-59.925-43-95-21.88-37.101-38.496-55.27-66.499-88-38.059-44.484-65.296-63.913-106.5-105.5-32.46-32.761-52.794-49.222-82.5-84.5-20.828-24.734-33.848-37.987-50-66-14.063-24.389-23.968-38.3-29-66Z"/><path fill="#EF9A9A" stroke="#EF9A9A" d="M642.041 146c3.856-18.841 14.5-32.5 14.5-32.5s-7.081 27.189-7.5 45c-.868 36.896 9.734 56.962 24 91 26.374 62.931 63.316 86.721 104 141.5 55.048 74.12 102.639 104.957 144 187.5 16.634 33.196 27.809 51.784 36 88 10.94 48.375 12.59 74.91.459 123-10.146 40.221-20.037 67.943-46.959 99.5-24.943 29.237-43.679 44.079-79.5 58-34.291 13.327-56.872 14.932-93.5 11.5-42.554-3.988-69.29-10.725-103-37-29.417-22.929-56.5-77-56.5-77s34.526 48.07 66 67c32.569 19.589 55.51 25.896 93.5 27 34.029.989 54.891-2.098 85.5-17 27.089-13.189 40.674-25.385 60-48.5 24.592-29.414 34.479-51.008 42.5-88.5 9.668-45.193 3.662-73.553-9-118-8.838-31.022-18.917-46.728-33.5-75.5-41.541-81.959-86.029-114.891-136-192-37.116-57.272-68.386-84.935-90.5-149.5-11.791-34.423-21.796-67.853-14.5-103.5Z"/><path fill="#EF9A9A" stroke="#EF9A9A" d="M533.1 236.5c17.199-26.988 53-62.5 53-62.5s-8.02 70.889 9.5 110.5c8.675 19.614 16.595 29.259 30 46 22.906 28.607 46.855 34.086 70 62.5 22.441 27.549 31.437 42.489 37.5 77.5 4.898 28.28-.216 45.3 0 74 .203 26.955-.572 43.116 8.5 68.5 9.46 26.471 39 60.5 39 60.5s-21.936 26.406-39 40c-24.598 19.595-43.28 23.146-71 38-32.033 17.165-48.335 30.309-82 44-15.903 6.467-24.919 10.051-41.5 14.5-10.616 2.849-16.558 4.953-27.5 6-8.747.837-14.037 2.365-22.5 0-7.069-1.976-10.872-4.289-16.5-9-4.029-3.372-5.884-5.77-9-10-5.439-7.382-8.077-12.157-10.5-21-2.074-7.57-3.008-12.216-2-20 .706-5.453 1.264-8.731 4-13.5 1.594-2.778 3.306-3.782 5-6.5 1.617-2.594 3.815-3.96 3.5-7-.262-2.532-1.842-3.568-3.5-5.5-2.265-2.638-4.075-3.621-7-5.5-3.306-2.124-5.636-2.469-9-4.5-2.643-1.596-4.571-2.09-6.5-4.5-2.431-3.038-2.767-5.616-3-9.5-.213-3.557.423-5.603 1.5-9 1.188-3.746 2.179-5.829 4.5-9 2.12-2.897 3.321-4.833 6.5-6.5 3.498-1.833 6.052-1.424 10-1.5 4.528-.087 6.979 1.228 11.5 1.5 3.898.234 6.095 0 10 0 3.515 0 11.798 2.128 9 0-1.623-1.234-3.047-.914-5-1.5-3.905-1.172-6.179-1.576-10-3-3.604-1.343-5.389-2.674-9-4-4.003-1.47-6.335-2.083-10.5-3-3.48-.766-5.537-.661-9-1.5-4.621-1.12-7.606-1.271-11.5-4-3.4-2.383-5.178-4.27-7-8-1.832-3.751-2.127-6.328-2-10.5.11-3.599.328-5.811 2-9 1.233-2.352 2.398-3.474 4.246-5.255l.254-.245c2.108-2.034 4.429-2.028 6-4.5 1.602-2.521 1.315-4.519 1.5-7.5.268-4.327-.102-6.896-1.5-11-.985-2.893-1.621-4.589-3.5-7-2.665-3.42-4.816-3.714-8.5-6-7.429-4.61-12.343-4.977-19.5-10-5.539-3.887-11.371-5.789-15-11.5-2.82-4.438-4.129-6.815-5-12-.679-4.044-.912-7.502 0-11.5.972-4.257 2.119-6.219 5-9.5 18-20.5 17.5-19 22.5-23.5s51.75-51.16 59-72c2.506-7.202 3.507-11.44 4.5-19 2.25-17.126-5.311-26.746-4.5-44 .556-11.834 1.809-18.463 4.5-30 5.115-21.928 12.294-32.951 21.5-53.5 9.997-22.314 14.86-35.38 28-56Z"/><path fill="#577787" stroke="#577787" d="m110 535 212-425-165.5 425L322 960 110 535ZM1381 535l-212-425 165.5 425L1169 960l212-425Z"/><path fill="#577787" d="M121.718 1197h4.914v-42.71h54.432V1197h4.914v-88.2h-4.914v40.95h-54.432v-40.95h-4.914v88.2Zm87.882 0h58.842v-4.41h-53.928v-38.43h47.88v-4.28h-47.88v-36.67h53.046v-4.41H209.6v88.2Zm80.008 0h4.914v-37.67h30.24c.882 0 1.638 0 2.52-.13l19.53 37.8h5.67l-20.412-38.3c14.994-2.78 20.916-14.37 20.916-24.7 0-12.35-7.308-25.2-28.098-25.2h-35.28v88.2Zm4.914-41.96v-41.96h30.24c17.262 0 23.31 10.71 23.31 20.92 0 9.83-6.174 21.04-23.436 21.04h-30.114ZM413 1198.51c11.466 0 22.05-3.65 29.484-10.46l-3.276-3.4c-6.426 5.92-16.002 9.45-26.082 9.45-23.436 0-38.556-17.01-38.556-42.33 0-24.07 15.498-40.07 38.556-40.07 9.072 0 17.892 2.9 24.57 7.81l2.772-3.78c-7.308-5.42-17.262-8.44-27.342-8.44-25.956 0-43.596 17.89-43.596 44.48 0 27.97 17.262 46.74 43.47 46.74Zm86.142 0c23.94 0 42.84-17.51 42.84-46.37 0-27.21-19.278-44.85-42.84-44.85-23.436 0-42.714 17.64-42.714 44.85 0 28.86 18.9 46.37 42.714 46.37Zm0-4.41c-21.042 0-37.674-15.75-37.674-41.96 0-24.44 17.136-40.44 37.674-40.44 20.664 0 37.8 16 37.8 40.44 0 26.21-16.758 41.96-37.8 41.96Zm62.726 2.9h23.184c31.122 0 45.99-17.01 45.99-45.23 0-26.59-15.876-42.97-45.99-42.97h-23.184v88.2Zm4.914-4.28v-79.64h18.396c26.838 0 40.95 14.87 40.95 38.69 0 25.45-13.356 40.95-40.95 40.95h-18.396Zm84.076 4.28H709.7v-4.41h-53.928v-38.43h47.88v-4.28h-47.88v-36.67h53.046v-4.41h-57.96v88.2Zm108.382 0h17.766v-58.09l39.312 58.09h18.522v-88.2h-17.892v58.34l-39.438-58.34h-18.27v88.2Zm92.558 0h64.638v-16.51h-45.612v-20.91h40.194v-14.74h-40.194v-19.53h45.108v-16.51h-64.134v88.2Zm103.575 0h19.026v-71.32h29.231v-16.88h-77.363v16.88h29.106V1197Zm81.307 0h18.64l17.39-59.35h.25l17.14 59.35h18.65l26.96-88.2h-19.65l-17.52 59.85h-.25l-17.01-59.85h-17.01l-17.01 59.85h-.25l-17.52-59.85h-19.78l26.97 88.2Zm149.15 1.51c26.84 0 45.23-19.65 45.23-45.86 0-25.83-18.64-45.36-45.23-45.36-26.59 0-45.23 19.53-45.23 45.36 0 26.21 18.52 45.86 45.23 45.86Zm0-15.87c-15.37 0-25.83-12.1-25.83-29.99 0-17.14 10.58-29.49 25.83-29.49 15.37 0 25.83 12.35 25.83 29.49 0 17.89-10.58 29.99-25.83 29.99Zm59.09 14.36h19.15v-32.38h19.91l13.48 32.38h20.41l-16.63-35.53c11.21-4.66 16.13-14.24 16.13-24.45 0-14.23-8.57-28.22-34.02-28.22h-38.43v88.2Zm19.15-46.87v-26.34h19.15c9.83 0 15 5.42 15 13.23 0 7.56-5.04 13.11-15.12 13.11h-19.03Zm68.61 46.87h19.15v-22.43l15.24-18.27 21.05 40.7h21.29l-29.74-55.82 26.97-32.38h-20.67l-34.14 41.83v-41.83h-19.15v88.2Z"/></svg>